<mxfile host="app.diagrams.net" modified="2023-04-19T11:36:04.016Z" agent="Mozilla/5.0 (Macintosh; Intel Mac OS X 10_15_7) AppleWebKit/537.36 (KHTML, like Gecko) Chrome/112.0.0.0 Safari/537.36" version="21.2.0" etag="T6yySZUn604fU6S4EjVs" type="github">
  <diagram name="Pagina-1" id="_oc3p2VVKy0Og8EhfeOK">
    <mxGraphModel>
      <root>
        <mxCell id="0" />
        <mxCell id="1" parent="0" />
      </root>
    </mxGraphModel>
  </diagram>
</mxfile>
